<?xml version="1.0" encoding="iso-8859-1"?>
<!-- Generator: Adobe Illustrator 18.1.1, SVG Export Plug-In . SVG Version: 6.00 Build 0)  -->
<svg version="1.1" id="Capa_1" xmlns="http://www.w3.org/2000/svg" xmlns:xlink="http://www.w3.org/1999/xlink" x="0px" y="0px"
	 viewBox="0 0 591.6 591.6" style="enable-background:new 0 0 591.6 591.6;" xml:space="preserve">
<g>
	<g>
		<path stroke="white" fill="white" d="M541.008,254.592c-20.4-20.4-44.88-35.088-71.808-43.248c-0.612-45.492-18.564-87.924-50.592-119.952
			C385.968,58.752,342.312,40.8,295.8,40.8s-89.964,17.952-122.808,50.592c-32.028,32.232-49.776,74.664-50.592,120.156
			c-26.928,8.16-51.408,22.848-71.808,43.248C17.952,287.436,0,330.888,0,377.4s17.952,89.964,50.592,122.808
			c32.64,32.64,76.296,50.592,122.808,50.592h244.8c46.512,0,89.964-17.952,122.808-50.592
			c32.64-32.64,50.592-76.296,50.592-122.808S573.648,287.436,541.008,254.592z M418.2,530.4H173.4c-84.456,0-153-68.544-153-153
			s68.544-153,153-153s153,68.544,153,153c0,5.712,4.488,10.2,10.2,10.2s10.2-4.488,10.2-10.2c0-95.676-77.724-173.4-173.4-173.4
			c-1.836,0-3.876,0-5.712,0.204C176.664,136.476,234.6,84.66,303.96,84.66c2.856,0,5.1-2.244,5.1-5.1s-2.244-5.1-5.1-5.1
			c-75.072,0-137.904,56.508-146.676,130.356c-4.896,0.408-9.588,1.02-14.28,1.836C146.88,125.868,213.996,61.2,295.8,61.2
			s148.92,64.668,152.796,145.452C438.6,204.816,428.4,204,418.2,204c-5.712,0-10.2,4.488-10.2,10.2s4.488,10.2,10.2,10.2
			c84.456,0,153,68.544,153,153S502.656,530.4,418.2,530.4z"/>
		<path stroke="white" fill="white" d="M181.56,237.864c-81.396,0-147.696,66.3-147.696,147.696c0,2.856,2.244,5.1,5.1,5.1s5.1-2.244,5.1-5.1
			c0-75.888,61.812-137.496,137.496-137.496c2.856,0,5.1-2.244,5.1-5.1S184.416,237.864,181.56,237.864z"/>
	</g>
</g>
<g>
</g>
<g>
</g>
<g>
</g>
<g>
</g>
<g>
</g>
<g>
</g>
<g>
</g>
<g>
</g>
<g>
</g>
<g>
</g>
<g>
</g>
<g>
</g>
<g>
</g>
<g>
</g>
<g>
</g>
</svg>
