<?xml version="1.0" encoding="iso-8859-1"?>
<!-- Generator: Adobe Illustrator 18.1.1, SVG Export Plug-In . SVG Version: 6.00 Build 0)  -->
<svg version="1.1" id="Capa_1" xmlns="http://www.w3.org/2000/svg" xmlns:xlink="http://www.w3.org/1999/xlink" x="0px" y="0px"
	 viewBox="0 0 106.386 106.386" style="enable-background:new 0 0 106.386 106.386;" xml:space="preserve">
<g id="_x31__5_">
	<g>
		<path fill="white" style="fill-rule:evenodd;clip-rule:evenodd;" d="M99.466,68.363L97.7,63.747l-13.102,5.015L78.3,65.065l18.139-7.497
			l-1.778-4.306l1.793-4.298L78.34,41.406l6.311-3.676l13.086,5.059l1.78-4.61l-9.399-3.634l10.271-5.982l-2.486-4.271
			l-10.271,5.982l1.481-9.971l-4.888-0.726l-2.062,13.882l-6.309,3.675l2.37-19.489l-4.301-0.523l-2.616-3.455L55.663,25.522v-7.303
			l10.955-8.767l-3.086-3.86l-7.869,6.297V0h-4.941v11.889l-7.869-6.297l-3.086,3.86l10.955,8.767v7.304L35.078,13.667l-2.569,3.393
			l-4.227,0.5l2.304,19.497l-6.298-3.697l-2.014-13.889l-4.889,0.71l1.447,9.976l-10.25-6.017l-2.501,4.263l10.25,6.017
			l-9.412,3.602l1.766,4.616l13.103-5.015l6.298,3.697L9.947,48.818l1.778,4.305l-1.793,4.299l18.114,7.559l-6.311,3.676
			L8.65,63.596l-1.782,4.609l9.399,3.634l-10.27,5.982l2.486,4.272l10.27-5.982l-1.48,9.971l4.888,0.726l2.061-13.882l6.31-3.675
			l-2.37,19.489l4.301,0.523l2.616,3.455l15.644-11.856v7.303l-10.955,8.767l3.086,3.86l7.869-6.297v11.889h4.941V94.497
			l7.869,6.297l3.086-3.86l-10.955-8.767v-7.303l15.644,11.856l2.569-3.393l4.227-0.5l-2.304-19.497l6.298,3.697l2.014,13.889
			l4.889-0.71l-1.447-9.976l10.25,6.017l2.501-4.264l-10.25-6.017L99.466,68.363z M93.919,53.262l-20.965,8.665l-14.865-8.726
			l14.895-8.675L93.919,53.262z M73.145,18.475l-2.649,21.779l-14.833,8.639v-17.17L73.145,18.475z M33.378,18.58l17.344,13.144
			v17.154l-14.79-8.681L33.378,18.58z M12.466,53.124l20.965-8.665l14.865,8.726L33.402,61.86L12.466,53.124z M33.24,87.91
			l2.649-21.779l14.833-8.64v17.171L33.24,87.91z M73.007,87.806L55.663,74.662V57.509l14.79,8.681L73.007,87.806z"/>
	</g>
</g>
<g>
</g>
<g>
</g>
<g>
</g>
<g>
</g>
<g>
</g>
<g>
</g>
<g>
</g>
<g>
</g>
<g>
</g>
<g>
</g>
<g>
</g>
<g>
</g>
<g>
</g>
<g>
</g>
<g>
</g>
</svg>
